{"title":"The Getaway (1994) Kim Basinger + Alec Baldwin (opt.SWESUBS)","uid":4300812,"size":729131647,"categoryP":"video","categoryS":"movies","magnet":"?xt=urn:btih:28bfcf050d9b8ffb580f4b5a5813c214d5c4a7af&amp;dn=The+Getaway+%281994%29+Kim+Basinger+%2B+Alec+Baldwin+%28opt.SWESUBS%29&amp;tr=udp%3A%2F%2Ftracker.openbittorrent.com%3A80&amp;tr=udp%3A%2F%2Fopen.demonii.com%3A1337&amp;tr=udp%3A%2F%2Ftracker.coppersurfer.tk%3A6969&amp;tr=udp%3A%2F%2Fexodus.desync.com%3A6969","seeders":7,"leechers":3,"uploader":"Kuthumi","files":-1,"time":1216308403,"description":"Optional Swedish subtitles in separate idx/sub files. &lt;a href=&quot;\nhttp://www.imdb.com/title/tt0109890/&quot; rel=&quot;nofollow&quot; target=&quot;_NEW&quot;&gt;\nhttp://www.imdb.com/title/tt0109890/&lt;/a&gt;\n\nWith Michael Madsen\n\nI prefer this high-paced action thriller over the original with Steve McQueen from 1972, which I found old-fashioned. In this remake, the sex is better, the explosions bigger, and the stereo sound is great. Only a full DVD seems to remain here at Piratebay, so I made this rip.\n\nDVDrip 2-pass, XviD\nWidescreen 272, great stereo sound AC3.\nBurn tested, runs well in both my standalone DivX players.\n\nFormat/Info                      : Audio Video Interleave\nFile size                        : 695 MiB\nDuration                         : 1h 55mn\nOveral bit rate                  : 839 Kbps\nVideo\nFormat                           : MPEG-4 Visual\nFormat profile                   : Streaming Video@L1\nFormat settings, BVOP            : Yes\nFormat settings, QPel            : No\nFormat settings, GMC             : No warppoints\nFormat settings, Matrix          : Default\nMuxing mode                      : Packet Bitstream\nCodec ID                         : XVID\nCodec ID/Hint                    : XviD\nDuration                         : 1h 55mn\nBit rate                         : 702 Kbps\nWidth                            : 704 pixels\nHeight                           : 272 pixels\nDisplay aspect ratio             : 2.588\nFrame rate                       : 23.976 fps\nResolution                       : 8 bits\nColorimetry                      : 4:2:0\nScan type                        : Progressive\nBits/(Pixel*Frame)               : 0.153\nStream size                      : 581 MiB\nWriting library                  : XviD 1.2.0.dev47 (UTC 2006-11-01)\n\nAudio\nFormat                           : MPEG Audio\nFormat version                   : Version 1\nFormat profile                   : Layer 3\nCodec ID                         : 55\nCodec ID/Hint                    : MP3\nDuration                         : 1h 55mn\nBit rate mode                    : Constant\nBit rate                         : 128 Kbps\nMinimum bit rate                 : 128 Kbps\nChannel(s)                       : 2 channels\nSampling rate                    : 48.0 KHz\nResolution                       : 16 bits\nStream size                      : 106 MiB\nWriting library                  : LAME3.97 \nEncoding settings                : CBR\n","torrent":{"xt":"urn:btih:28bfcf050d9b8ffb580f4b5a5813c214d5c4a7af","amp;dn":"The+Getaway+%281994%29+Kim+Basinger+%2B+Alec+Baldwin+%28opt.SWESUBS%29","amp;tr":["udp%3A%2F%2Ftracker.openbittorrent.com%3A80","udp%3A%2F%2Fopen.demonii.com%3A1337","udp%3A%2F%2Ftracker.coppersurfer.tk%3A6969","udp%3A%2F%2Fexodus.desync.com%3A6969"],"infoHash":"28bfcf050d9b8ffb580f4b5a5813c214d5c4a7af","infoHashBuffer":{"type":"Buffer","data":[40,191,207,5,13,155,143,251,88,15,75,90,88,19,194,20,213,196,167,175]},"announce":[],"urlList":[]}}